<svg xmlns="http://www.w3.org/2000/svg" xmlns:xlink="http://www.w3.org/1999/xlink" width="1116.856" height="131.403" viewBox="0 0 1116.856 131.403">
  <defs>
    <linearGradient id="linear-gradient" x1="-1.415" y1="2.936" x2="0.394" y2="0.632" gradientUnits="objectBoundingBox">
      <stop offset="0" stop-color="#95c3e1"/>
      <stop offset="0.5" stop-color="#91bfdd"/>
      <stop offset="1" stop-color="#032353"/>
    </linearGradient>
    <linearGradient id="linear-gradient-2" x1="-1.123" y1="2.624" x2="0.475" y2="0.5" xlink:href="#linear-gradient"/>
    <linearGradient id="linear-gradient-3" x1="-0.797" y1="2.427" x2="0.433" y2="0.579" xlink:href="#linear-gradient"/>
  </defs>
  <g id="avanqardups-logo" transform="translate(18310.256 -5921.06)">
    <path id="Path_494" data-name="Path 494" d="M79.47,27.66H26.965L11.382,52.228H-3.78l64.3-98.271h13.9L99.265,52.228h-13.9ZM76.662,16.429,65.01-32,34.125,16.429ZM187.849-22.178,140.539,52.228H126.781L108.951-22.178h13.477l13.9,59.665,37.9-59.665Zm79.6,0L252.708,52.228H239.793l1.825-9.125a35.823,35.823,0,0,1-11.722,7.37,39.7,39.7,0,0,1-14.53,2.6,36.346,36.346,0,0,1-16.987-3.861,28.183,28.183,0,0,1-11.652-11.161,33.674,33.674,0,0,1-4.212-17.127,46.165,46.165,0,0,1,5.475-22.6,39.948,39.948,0,0,1,15.092-15.583,41.94,41.94,0,0,1,21.55-5.616,36.546,36.546,0,0,1,16.355,3.369,23.672,23.672,0,0,1,10.459,9.968l2.527-12.635ZM218.313,41.277a28.5,28.5,0,0,0,14.951-4,27.506,27.506,0,0,0,10.389-11.161,34.8,34.8,0,0,0,3.72-16.285q0-9.968-5.756-15.443t-16.425-5.475a27.8,27.8,0,0,0-25.27,15.162,34.271,34.271,0,0,0-3.79,16.285q0,9.827,5.826,15.372T218.313,41.277ZM330.2-22.88q12.775,0,19.865,6.458t7.09,18.25a48.779,48.779,0,0,1-.842,8.7l-8.283,41.7H334.555l8.283-41.7a35.422,35.422,0,0,0,.7-6.177q0-7.3-4.352-11.231t-12.916-3.931q-10.95,0-18.04,5.966t-9.476,17.759l-7.862,39.309H277.417l14.741-74.406h12.916l-1.825,9.546Q313.356-22.88,330.2-22.88Zm127.051.7L437.038,79.463H423.56l7.019-35.518a35.557,35.557,0,0,1-11.371,6.739A40.2,40.2,0,0,1,405.17,53.07a36.346,36.346,0,0,1-16.987-3.861A28.183,28.183,0,0,1,376.53,38.049a33.675,33.675,0,0,1-4.212-17.127,46.165,46.165,0,0,1,5.475-22.6,39.948,39.948,0,0,1,15.092-15.583,41.94,41.94,0,0,1,21.55-5.616q9.827,0,16.776,3.58A23.4,23.4,0,0,1,441.67-8.7l2.808-13.477ZM408.118,41.277a28.5,28.5,0,0,0,14.951-4,27.506,27.506,0,0,0,10.389-11.161,34.8,34.8,0,0,0,3.72-16.285q0-9.968-5.756-15.443T415-11.087a27.8,27.8,0,0,0-25.27,15.162,34.271,34.271,0,0,0-3.79,16.285q0,9.827,5.826,15.372T408.118,41.277Zm143.9-63.455L537.275,52.228H524.359l1.825-9.125a35.824,35.824,0,0,1-11.722,7.37,39.7,39.7,0,0,1-14.53,2.6,36.346,36.346,0,0,1-16.987-3.861,28.183,28.183,0,0,1-11.652-11.161,33.675,33.675,0,0,1-4.212-17.127,46.165,46.165,0,0,1,5.475-22.6,39.948,39.948,0,0,1,15.092-15.583A41.94,41.94,0,0,1,509.2-22.88a36.546,36.546,0,0,1,16.355,3.369,23.672,23.672,0,0,1,10.459,9.968l2.527-12.635ZM502.879,41.277a28.5,28.5,0,0,0,14.951-4,27.506,27.506,0,0,0,10.389-11.161,34.8,34.8,0,0,0,3.72-16.285q0-9.968-5.756-15.443t-16.425-5.475a27.8,27.8,0,0,0-25.27,15.162A34.271,34.271,0,0,0,480.7,20.36q0,9.827,5.826,15.372T502.879,41.277Zm84.654-52.365a28.508,28.508,0,0,1,12.073-8.985,47.787,47.787,0,0,1,17.408-2.808L614.488-9.824a33.717,33.717,0,0,0-3.51-.14q-23.164,0-28.078,24.989l-7.44,37.2H561.983l14.741-74.406h12.916ZM707.705-51.94,686.928,52.228H674.012l1.825-9.125a35.824,35.824,0,0,1-11.722,7.37,39.7,39.7,0,0,1-14.53,2.6A36.346,36.346,0,0,1,632.6,49.209a28.182,28.182,0,0,1-11.652-11.161,33.675,33.675,0,0,1-4.212-17.127,46.164,46.164,0,0,1,5.475-22.6A39.948,39.948,0,0,1,637.3-17.264a41.94,41.94,0,0,1,21.55-5.616,36.81,36.81,0,0,1,16.5,3.439A23.125,23.125,0,0,1,685.8-9.4l8.423-42.537ZM652.533,41.277a28.5,28.5,0,0,0,14.951-4,27.506,27.506,0,0,0,10.389-11.161,34.8,34.8,0,0,0,3.72-16.285q0-9.968-5.756-15.443t-16.425-5.475a27.8,27.8,0,0,0-25.27,15.162,34.271,34.271,0,0,0-3.79,16.285q0,9.827,5.826,15.372T652.533,41.277Zm141.23,12.073q-17.408,0-27.165-8.7T756.841,20.5a59.16,59.16,0,0,1,1.123-10.669l11.091-55.874h14.039L771.862,9.69a45.9,45.9,0,0,0-.983,9.266q0,10.81,6.177,16.355t17.97,5.545q13.2,0,21.128-7.581T827.316,9.55l11.091-55.594h13.758L840.933,10.533q-4.352,21.339-16.215,32.079T793.763,53.351Zm116.8-76.231a36.347,36.347,0,0,1,16.987,3.861A28.309,28.309,0,0,1,939.2-7.928a33.29,33.29,0,0,1,4.212,17.057,46.164,46.164,0,0,1-5.475,22.6A40.451,40.451,0,0,1,922.85,47.384,41.54,41.54,0,0,1,901.3,53.07a36.36,36.36,0,0,1-16.425-3.44,24,24,0,0,1-10.529-10.038l-7.862,39.87H853.007L873.222-22.178h12.916l-1.825,9.266Q894.7-22.88,910.566-22.88Zm-9.827,64.157a27.8,27.8,0,0,0,25.27-15.162A34.273,34.273,0,0,0,929.8,9.831q0-9.968-5.756-15.443t-16.425-5.475a28.5,28.5,0,0,0-14.951,4A27.507,27.507,0,0,0,882.277,4.075a34.8,34.8,0,0,0-3.72,16.285q0,9.827,5.826,15.372T900.738,41.277Zm75.95,11.793a63.835,63.835,0,0,1-17.619-2.387q-8.353-2.387-12.986-6.177l6.037-10.669a32.279,32.279,0,0,0,11.3,5.545,51.423,51.423,0,0,0,14.53,2.036q9.546,0,14.53-2.878t4.984-8.072a6.216,6.216,0,0,0-4-6.037,65.621,65.621,0,0,0-12.424-3.65,107.8,107.8,0,0,1-12.845-3.44,20.494,20.494,0,0,1-8.493-5.616q-3.51-3.861-3.51-10.459a20.586,20.586,0,0,1,4.141-12.775,26.09,26.09,0,0,1,11.793-8.423,49.218,49.218,0,0,1,17.759-2.948,57.229,57.229,0,0,1,14.46,1.825,36.443,36.443,0,0,1,11.512,4.914l-5.335,10.669a32.021,32.021,0,0,0-10.108-4.422,47.344,47.344,0,0,0-11.793-1.474q-9.125,0-14.039,3.018T969.669-.277A6.544,6.544,0,0,0,973.74,6.11a63.37,63.37,0,0,0,12.635,3.72A117,117,0,0,1,999.01,13.2a19.733,19.733,0,0,1,8.353,5.475q3.439,3.79,3.439,10.248a20.342,20.342,0,0,1-9.336,17.759Q992.131,53.07,976.688,53.07Z" transform="translate(-18209.256 5973)" fill="#1b262c"/>
    <g id="Group_208" data-name="Group 208" transform="translate(-18310.256 5926.04)">
      <path id="Path_217" data-name="Path 217" d="M0,95.595l15.921.556,66.3-95.6L66.583,0Z" transform="translate(50.982 2.869) rotate(-2)" fill="url(#linear-gradient)"/>
      <path id="Path_492" data-name="Path 492" d="M17.607,94.937l0,0h0l-15.928,0L52.336,16.5H68.044Z" transform="translate(25.705 3.47)" fill="url(#linear-gradient-2)"/>
      <path id="Path_493" data-name="Path 493" d="M15.93,71.887H0L39,11.5H54.76L15.931,71.886Z" transform="translate(0 26.519)" fill="url(#linear-gradient-3)"/>
    </g>
  </g>
</svg>
